# AST/ASF file generated using VICON BodyLanguage
# -----------------------------------------------
:version 1.10
:name VICON
:units
  mass 1.0
  length 0.45
  angle deg
:documentation
   .ast/.asf automatically generated from VICON data using
   VICON BodyBuilder and BodyLanguage model FoxedUp or BRILLIANT.MOD
:root
   order TX TY TZ RX RY RZ
   axis XYZ
   position 0 0 0  
   orientation 0 0 0 
:bonedata
  begin
     id 1 
     name lhipjoint
     direction 0.61886 -0.69539 0.365302 
     length 2.20474 
     axis 0 0 0  XYZ
  end
  begin
     id 2 
     name lfemur
     direction 0.34202 -0.939693 0  
     length 6.65149  
     axis 0 0 20  XYZ
    dof rx ry rz
    limits (-160.0 20.0)
           (-70.0 70.0)
           (-60.0 70.0)
  end
  begin
     id 3 
     name ltibia
     direction 0.34202 -0.939693 0   
     length 6.35814   
     axis 0 0 20   XYZ
    dof rx
    limits (-10.0 170.0)
  end
  begin
     id 4 
     name lfoot
     direction 0.101224 -0.278109 0.955201   
     length 2.18766   
     axis -90 7.62852e-016 20   XYZ
    dof rx rz
    limits (-45.0 90.0)
           (-70.0 20.0)
  end
  begin
     id 5 
     name ltoes
     direction 1.53524e-011 -4.21877e-011 1   
     length 1.09206   
     axis -90 7.62852e-016 20   XYZ
    dof rx
    limits (-90.0 20.0)
  end
  begin
     id 6 
     name rhipjoint
     direction -0.600207 -0.708087 0.371972   
     length 2.1652  
     axis 0 0 0  XYZ 
  end
  begin
     id 7 
     name rfemur
     direction -0.34202 -0.939693 0   
     length 6.54691   
     axis 0 0 -20   XYZ
    dof rx ry rz
    limits (-160.0 20.0)
           (-70.0 70.0)
           (-70.0 60.0)
  end
  begin
     id 8 
     name rtibia
     direction -0.34202 -0.939693 0   
     length 6.37474   
     axis 0 0 -20   XYZ
    dof rx
    limits (-10.0 170.0)
 end
 begin
     id 9 
     name rfoot
     direction -0.111266 -0.3057 0.945604   
     length 2.00903  
     axis -90 -7.62852e-016 -20   XYZ
    dof rx rz
    limits (-45.0 90.0)
           (-20.0 70.0)
  end
  begin
     id 10 
     name rtoes
     direction -1.5362e-011 -4.21913e-011 1   
     length 1.00221   
     axis -90 -7.62852e-016 -20   XYZ
    dof rx
    limits (-90.0 20.0)
  end
  begin
     id 11 
     name lowerback
     direction -0.0224561 0.999731 -0.00577314   
     length 2.10409   
     axis 0 0 0   XYZ
    dof rx ry rz
    limits (-20.0 45.0)
           (-30.0 30.0)
           (-30.0 30.0)
  end
  begin
     id 12 
     name upperback
     direction 0.0213126 0.999185 -0.0342817   
     length 2.09783   
     axis 0 0 0   XYZ
    dof rx ry rz
    limits (-20.0 45.0)
           (-30.0 30.0)
           (-30.0 30.0)
  end
  begin
     id 13 
     name thorax
     direction 0.0312356 0.999036 -0.0308451   
     length 2.09788   
     axis 0 0 0   XYZ
    dof rx ry rz
    limits (-20.0 45.0)
           (-30.0 30.0)
           (-30.0 30.0)
  end
  begin
     id 14 
     name lowerneck
     direction -0.0114419 0.996481 0.0830329   
     length 1.38575   
     axis 0 0 0   XYZ
    dof rx ry rz
    limits (-20.0 45.0)
           (-30.0 30.0)
           (-30.0 30.0)
  end
  begin
     id 15 
     name upperneck
     direction -0.0075675 0.996187 -0.0869092   
     length 1.39401   
     axis 0 0 0   XYZ
    dof rx ry rz
    limits (-20.0 45.0)
           (-30.0 30.0)
           (-30.0 30.0)
  end
  begin
     id 16
     name head
     direction -0.00222073 0.999264 -0.0382974  
     length 1.3964  
     axis 0 0 0   XYZ
    dof rx ry rz
    limits (-20.0 45.0)
           (-30.0 30.0)
           (-30.0 30.0)
  end
  begin
     id 17 
     name lclavicle
     direction 0.965962 0.222138 0.132556  
     length 2.81514  
     axis 0 0 0   XYZ
    dof ry rz
    limits (-20.0 10.0)
           (0.0 20.0)
  end
  begin
     id 18 
     name lhumerus
     direction 1 -4.48972e-011 7.03471e-018   
     length 4.47366   
     axis 180 -30 -90   XYZ
    dof rx ry rz
    limits (-60.0 90.0)
           (-90.0 90.0)
           (-90.0 90.0)
  end
  begin
     id 19
     name lradius
     direction 1 -4.48951e-011 -6.22192e-028   
     length 3.19948   
     axis 180 -30 -90   XYZ
    dof rx
    limits (-10.0 170.0)
  end
  begin
     id 20
     name lwrist
     direction 1 -4.48967e-011 -1.24264e-027   
     length 1.59974   
     axis 1.40095e-015 90 90   XYZ
    dof ry
    limits (-180.0 0.0)
 end
  begin
     id 21 
     name lhand
     direction 1 -4.4897e-011 -2.48528e-027   
     length 0.492667   
     axis 1.58582e-015 90 90   XYZ
    dof rx rz
    limits (-90.0 90.0)
           (-45.0 45.0)
  end
  begin
     id 22 
     name lfingers
     direction 1 -4.48996e-011 -4.97056e-027   
     length 0.397201   
     axis 3.17164e-015 90 90   XYZ
    dof rx
    limits (0.0 90.0)
  end
  begin
     id 23
     name lthumb
     direction 0.707107 -6.34981e-011 0.707107   
     length 0.570303   
     axis -90 45 2.85299e-015   XYZ
    dof rx rz
    limits (-45.0 45.0)
           (-45.0 45.0)
  end
  begin
     id 24 
     name rclavicle
     direction -0.961164 0.229034 0.153972   
     length 3.09348  
     axis 0 0 0   XYZ 
    dof ry rz
    limits (-10.0 20.0)
           (-20.0 0.0)
  end
  begin
     id 25 
     name rhumerus
     direction -1 -4.48971e-011 -9.06263e-028  
     length 4.3269   
     axis 180 30 90   XYZ
    dof rx ry rz
    limits (-90.0 60.0)
           (-90.0 90.0)
           (-90.0 90.0)
  end
  begin
     id 26 
     name rradius
     direction -1 -4.48953e-011 1.44659e-027   
     length 3.1896   
     axis 180 30 90   XYZ
    dof rx
    limits (-10.0 170.0)
  end
  begin
     id 27 
     name rwrist
     direction -1 -4.48988e-011 -1.24264e-027   
     length 1.5948   
     axis 1.40095e-015 -90 -90   XYZ
    dof ry
    limits (-180.0 0.0)
  end
  begin
     id 28
     name rhand
     direction -1 -4.49033e-011 -2.48528e-027   
     length 0.464496   
     axis 1.58582e-015 -90 -90   XYZ
    dof rx rz
    limits (-90.0 90.0)
           (-45.0 45.0)
  end
  begin
     id 29
     name rfingers
     direction -1 -4.48905e-011 -4.97056e-027   
     length 0.374489   
     axis 3.17164e-015 -90 -90   XYZ
    dof rx
    limits (0.0 90.0)
  end
  begin
     id 30
     name rthumb
     direction -0.707107 -6.34909e-011 0.707107   
     length 0.537693   
     axis -90 -45 -2.85299e-015   XYZ
    dof rx rz
    limits (-45.0 45.0)
           (-45.0 45.0)
  end
:hierarchy
  begin
    root lhipjoint rhipjoint lowerback
    lhipjoint lfemur
    lfemur ltibia
    ltibia lfoot
    lfoot ltoes
    rhipjoint rfemur
    rfemur rtibia
    rtibia rfoot
    rfoot rtoes
    lowerback upperback
    upperback thorax
    thorax lowerneck lclavicle rclavicle
    lowerneck upperneck
    upperneck head
    lclavicle lhumerus
    lhumerus lradius
    lradius lwrist
    lwrist lhand lthumb
    lhand lfingers
    rclavicle rhumerus
    rhumerus rradius
    rradius rwrist
    rwrist rhand rthumb
    rhand rfingers
  end

#!OML:ASF G:\acrobat\cartwheel_test 2\Patient 1\Session 2\acrobat4.ASF
:FULLY-SPECIFIED
:DEGREES
1219
root -0.505926 15.2501 -12.9773 4.53509 12.3137 3.04908
lowerback 1.03557 -0.59709 -5.25542
upperback -5.44082 -0.934639 1.56767
thorax -6.15098 -0.147958 4.64903
lowerneck -19.6869 -2.4901 -1.95741
upperneck -13.5244 -2.59252 3.47964
head -1.04928 -1.13861 1.31427
rclavicle -5.66536e-015 -3.97569e-015
rhumerus -22.1513 -28.9786 -4.09769
rradius 36.9501
rwrist -2.09714
rhand -20.6989 -34.8534
rfingers 7.12502
rthumb 5.6651 -64.7577
lclavicle -5.66536e-015 -3.97569e-015
lhumerus -17.0131 18.421 6.18438
lradius 32.4633
lwrist 21.3247
lhand -36.3473 6.63398
lfingers 7.12502
lthumb -9.44496 36.4023
rfemur -14.5497 7.62134 10.388
rtibia 32.0134
rfoot -26.5698 -18.6995
rtoes -8.13891
lfemur -8.71154 2.90878 -19.0425
ltibia 26.6468
lfoot -18.5414 15.2103
ltoes -24.1514
1220
root -0.443899 15.2532 -12.9743 4.35107 12.6003 2.79658
lowerback 0.973189 -0.76222 -4.84765
upperback -5.64554 -1.12847 1.7345
thorax -6.31046 -0.250223 4.60795
lowerneck -20.3879 -2.46025 -2.11288
upperneck -12.7237 -2.53706 3.40835
head -0.678895 -1.0974 1.30947
rclavicle 4.4329e-014 -3.18055e-015
rhumerus -21.9819 -28.7145 -5.00062
rradius 36.7312
rwrist -2.26093
rhand -20.5025 -35.0266
rfingers 7.12502
rthumb 5.85465 -64.9257
lclavicle 4.4329e-014 -3.18055e-015
lhumerus -16.5752 19.1175 6.54811
lradius 32.0059
lwrist 21.8472
lhand -36.3358 7.02339
lfingers 7.12502
lthumb -9.43379 36.7923
rfemur -14.0339 6.59794 11.4159
rtibia 32.9371
rfoot -25.9386 -17.8578
rtoes -8.16747
lfemur -8.61213 2.67893 -19.0071
ltibia 26.8305
lfoot -18.7063 15.2315
ltoes -23.9204
1221
root -0.399828 15.245 -12.9708 4.20965 13.1271 2.54258
lowerback 0.810683 -0.973567 -4.60554
upperback -5.74477 -1.38899 1.83494
thorax -6.29302 -0.387395 4.58988
lowerneck -20.7685 -2.58342 -2.4732
upperneck -12.4341 -2.61196 3.72989
head -0.510763 -1.11138 1.4688
rclavicle -3.38928e-014 -1.11319e-014
rhumerus -21.9179 -28.8364 -5.89859
rradius 36.3482
rwrist -2.2822
rhand -20.9634 -35.7049
rfingers 7.12502
rthumb 5.40964 -65.6159
lclavicle -3.38928e-014 -1.11319e-014
lhumerus -15.8232 19.5206 6.81676
lradius 31.8183
lwrist 22.7753
lhand -36.5917 7.39009
lfingers 7.12502
lthumb -9.68074 37.1476
rfemur -13.4425 5.21192 12.6379
rtibia 33.9564
rfoot -25.3841 -16.8114
rtoes -7.47083
lfemur -8.69707 2.25473 -18.8897
ltibia 27.1904
lfoot -18.9711 15.2114
ltoes -23.4769
1222
root -0.371027 15.2293 -12.9664 4.15398 13.6999 2.53784
lowerback 0.577972 -1.17218 -4.78463
upperback -5.78644 -1.65447 1.78764
thorax -6.17116 -0.514076 4.64984
lowerneck -20.5983 -2.74975 -2.58423
upperneck -12.6894 -2.79086 3.99594
head -0.608792 -1.19382 1.56775
rclavicle 9.93923e-017 2.38542e-015
rhumerus -22.1915 -28.8834 -6.5881
rradius 35.8975
rwrist -1.85162
rhand -21.8354 -36.8728
rfingers 7.12502
rthumb 4.56773 -66.8036
lclavicle 9.93923e-017 2.38542e-015
lhumerus -14.7884 19.7309 6.96645
lradius 31.8653
lwrist 23.6037
lhand -36.9863 7.69727
lfingers 7.12502
lthumb -10.0614 37.4367
rfemur -12.9012 3.56439 13.7105
rtibia 34.9243
rfoot -24.8861 -15.6496
rtoes -7.78571
lfemur -8.89495 1.88475 -18.9801
ltibia 27.6497
lfoot -19.2171 15.1696
ltoes -23.0306
1223
root -0.358049 15.2108 -12.9553 4.14363 14.1945 2.78282
lowerback 0.289463 -1.37401 -5.37247
upperback -5.6556 -1.93885 1.62539
thorax -5.82516 -0.644781 4.81227
lowerneck -20.7029 -2.97402 -2.66657
upperneck -12.8539 -3.04387 4.31397
head -0.631614 -1.31028 1.67284
rclavicle 9.34288e-015 1.66979e-014
rhumerus -22.4998 -28.9937 -7.3114
rradius 35.3743
rwrist -1.06177
rhand -22.0361 -37.2852
rfingers 7.12502
rthumb 4.37392 -67.22
lclavicle 9.34288e-015 1.66979e-014
lhumerus -13.6584 19.9121 6.88619
lradius 32.1861
lwrist 24.3584
lhand -37.5359 7.98966
lfingers 7.12502
lthumb -10.5917 37.7028
rfemur -12.3938 2.34697 14.6086
rtibia 35.6937
rfoot -24.4475 -14.4485
rtoes -6.4694
lfemur -9.05381 1.67071 -19.2615
ltibia 28.1002
lfoot -19.4958 15.057
ltoes -22.7636
1224
root -0.362203 15.191 -12.9403 4.18672 14.5824 3.02913
lowerback 0.02491 -1.59057 -6.08121
upperback -5.4816 -2.24358 1.41402
thorax -5.44047 -0.786096 4.98838
lowerneck -20.8362 -3.29319 -3.13092
upperneck -12.9675 -3.32603 5.08872
head -0.611425 -1.41917 1.99584
rclavicle -3.51352e-014 -1.07344e-014
rhumerus -22.7645 -29.2273 -8.15071
rradius 34.8357
rwrist -0.0472464
rhand -21.522 -37.0159
rfingers 7.12502
rthumb 4.87034 -66.9399
lclavicle -3.51352e-014 -1.07344e-014
lhumerus -12.5965 19.9735 6.46461
lradius 32.7694
lwrist 25.0076
lhand -38.0313 8.04738
lfingers 7.12502
lthumb -11.0695 37.7355
rfemur -12.0478 2.00011 15.5544
rtibia 36.1506
rfoot -23.7518 -13.8306
rtoes -2.58509
lfemur -9.2148 1.58798 -19.4596
ltibia 28.4453
lfoot -19.7764 14.8107
ltoes -22.5983
1225
root -0.378688 15.1715 -12.9254 4.2853 14.904 3.37166
lowerback -0.156171 -1.67269 -6.97813
upperback -5.1579 -2.36793 1.20521
thorax -4.96145 -0.840248 5.26373
lowerneck -20.7441 -3.74062 -3.91867
upperneck -13.6359 -3.68895 5.92694
head -0.797482 -1.55706 2.40614
rclavicle 3.62782e-014 -1.07344e-014
rhumerus -23.2758 -30.2597 -8.4645
rradius 34.2715
rwrist 1.26154
rhand -21.2243 -36.5858
rfingers 7.12502
rthumb 5.15779 -66.503
lclavicle 3.62782e-014 -1.07344e-014
lhumerus -11.1987 20.5179 6.32622
lradius 33.4403
lwrist 25.1502
lhand -38.2821 7.82979
lfingers 7.12502
lthumb -11.3113 37.5048
rfemur -11.9031 2.15861 16.318
rtibia 36.2374
rfoot -24.0134 -13.2801
rtoes 5.93798
lfemur -9.36461 1.61785 -19.6948
ltibia 28.6956
lfoot -19.9608 14.5021
ltoes -22.8617
1226
root -0.401899 15.1513 -12.9121 4.48871 15.1864 3.90154
lowerback -0.349512 -1.54363 -8.06413
upperback -4.56762 -2.19477 0.986112
thorax -4.23402 -0.763859 5.6209
lowerneck -21.017 -4.46472 -5.05168
upperneck -14.5562 -4.31182 6.69271
head -0.991631 -1.79835 2.84698
rclavicle 1.39149e-015 -1.23246e-014
rhumerus -24.348 -31.4813 -7.96609
rradius 33.9868
rwrist 1.96477
rhand -20.4469 -35.8213
rfingers 7.12502
rthumb 5.90835 -65.719
lclavicle 1.39149e-015 -1.23246e-014
lhumerus -9.29048 21.8078 6.81102
lradius 34.2004
lwrist 24.7825
lhand -38.428 7.38934
lfingers 7.12502
lthumb -11.4521 37.0566
rfemur -11.9159 2.34967 16.6231
rtibia 35.9791
rfoot -24.9949 -19.253
rtoes 4.86805
lfemur -9.57622 1.75813 -20.0831
ltibia 28.9641
lfoot -20.1565 14.1709
ltoes -23.3251
1227
root -0.429406 15.1319 -12.9032 4.69683 15.421 4.21769
lowerback -0.399752 -1.44293 -8.76232
upperback -4.27004 -2.06723 0.696471
thorax -3.90631 -0.705285 5.69934
lowerneck -20.6626 -5.06529 -5.83335
upperneck -15.3973 -4.89036 7.22917
head -1.26453 -2.04521 3.16046
rclavicle 1.38901e-014 5.36719e-015
rhumerus -25.8035 -31.0327 -7.56543
rradius 34.2019
rwrist 1.35074
rhand -28.3463 -44.5276
rfingers 7.12502
rthumb -1.72041 -74.5004
lclavicle 1.38901e-014 5.36719e-015
lhumerus -7.89716 22.1864 6.85289
lradius 35.4833
lwrist 24.754
lhand -38.7581 6.9501
lfingers 7.12502
lthumb -11.7704 36.5994
rfemur -11.8919 2.57049 16.8442
rtibia 35.4757
rfoot -25.7677 -22.0799
rtoes 5.6765
lfemur -9.94257 1.90391 -20.2317
ltibia 29.3622
lfoot -20.4084 13.7987
ltoes -23.522
1228
root -0.454622 15.1158 -12.9036 4.71966 15.612 4.10383
lowerback -0.115756 -1.56454 -8.75039
upperback -4.31332 -2.27247 0.304912
thorax -4.09447 -0.805109 5.29427
lowerneck -19.7081 -5.21359 -5.81667
upperneck -16.0575 -5.09672 7.54592
head -1.61494 -2.1655 3.28568
rclavicle -2.95754e-014 1.03368e-014
rhumerus -26.879 -30.4451 -7.99399
rradius 34.3652
rwrist 0.91633
rhand -20.2786 -36.8295
rfingers 7.12502
rthumb 6.07083 -66.7225
lclavicle -2.95754e-014 1.03368e-014
lhumerus -7.63062 21.6458 5.79745
lradius 37.3487
lwrist 25.2024
lhand -39.2904 6.51595
lfingers 7.12502
lthumb -12.2836 36.1352
rfemur -11.6017 2.7794 17.2501
rtibia 34.8631
rfoot -25.9829 -22.6625
rtoes 6.2984
lfemur -10.3739 1.93119 -19.9622
ltibia 29.9571
lfoot -20.6173 13.5266
ltoes -23.5741
1229
root -0.473542 15.1028 -12.9142 4.69086 15.5667 3.64519
lowerback 0.268359 -1.58044 -8.28886
upperback -4.28281 -2.32855 0.0429492
thorax -4.29313 -0.84725 4.7743
lowerneck -19.3527 -5.54615 -6.38364
upperneck -16.6676 -5.34121 8.51307
head -1.5985 -2.27798 3.45509
rclavicle 3.55265e-014 2.28354e-014
rhumerus -27.7764 -31.0471 -8.15548
rradius 34.2957
rwrist 1.16964
rhand -19.9426 -36.0276
rfingers 7.12502
rthumb 6.39523 -65.911
lclavicle 3.55265e-014 2.28354e-014
lhumerus -7.7735 21.2659 4.85713
lradius 39.4723
lwrist 25.8938
lhand -39.79 6.03657
lfingers 7.12502
lthumb -12.7654 35.6263
rfemur -11.4022 2.91189 17.7328
rtibia 34.2652
rfoot -25.676 -22.3071
rtoes 7.03635
lfemur -10.9337 1.80516 -19.4236
ltibia 30.722
lfoot -20.7869 13.707
ltoes -23.6578
1230
root -0.489048 15.0934 -12.9307 4.77223 15.2595 2.96826
lowerback 0.592677 -1.41349 -7.5867
upperback -4.26062 -2.11856 -0.0403381
thorax -4.50274 -0.762958 4.2977
lowerneck -18.4237 -5.56074 -5.78015
upperneck -18.0277 -5.53867 7.64392
head -2.47782 -2.4067 3.37185
rclavicle 4.89321e-014 2.79292e-014
rhumerus -28.8049 -31.9772 -7.65915
rradius 34.1515
rwrist 1.64929
rhand -25.4885 -42.4428
rfingers 7.12502
rthumb 1.03979 -72.42
lclavicle 4.89321e-014 2.79292e-014
lhumerus -8.17003 20.9015 4.31393
lradius 41.647
lwrist 26.7889
lhand -40.2283 5.29973
lfingers 7.12502
lthumb -13.1879 34.8626
rfemur -11.5457 2.93436 18.2646
rtibia 33.7392
rfoot -25.262 -21.469
rtoes 5.98293
lfemur -11.67 1.73036 -18.7236
ltibia 31.5294
lfoot -20.9552 14.203
ltoes -23.8323
1231
root -0.502822 15.088 -12.9485 4.85296 14.9368 2.34423
lowerback 1.00758 -1.42018 -6.87806
upperback -4.364 -2.15122 -0.205501
thorax -4.86693 -0.793944 3.74496
lowerneck -17.8161 -5.37622 -5.02939
upperneck -18.9391 -5.4344 7.35932
head -2.9366 -2.40939 3.18676
rclavicle -1.42876e-014 -1.61016e-014
rhumerus -29.4456 -32.4389 -7.72139
rradius 33.931
rwrist 1.86053
rhand -17.6383 -35.9142
rfingers 7.12502
rthumb 8.61944 -65.7183
lclavicle -1.42876e-014 -1.61016e-014
lhumerus -9.20183 20.3218 3.19173
lradius 43.6019
lwrist 27.6068
lhand -40.5829 4.1934
lfingers 7.12502
lthumb -13.5296 33.7339
rfemur -11.7391 2.70987 18.767
rtibia 33.3091
rfoot -24.7753 -20.6634
rtoes 3.49786
lfemur -12.315 1.81748 -18.0773
ltibia 32.2207
lfoot -21.0779 14.6282
ltoes -24.2558
1232
root -0.51967 15.0897 -12.9593 4.95847 14.5952 1.94884
lowerback 1.4279 -1.43656 -6.50438
upperback -4.46547 -2.20435 -0.365691
thorax -5.22389 -0.824302 3.38686
lowerneck -17.3642 -5.23175 -4.57523
upperneck -19.7253 -5.26346 7.608
head -2.89536 -2.38875 2.98371
rclavicle 2.73577e-014 1.11319e-014
rhumerus -29.8371 -32.2607 -7.96719
rradius 33.7827
rwrist 1.11008
rhand -18.6238 -37.1768
rfingers 7.12502
rthumb 7.66824 -67.0178
lclavicle 2.73577e-014 1.11319e-014
lhumerus -10.1381 19.8394 2.19006
lradius 44.8597
lwrist 27.8739
lhand -40.765 3.12381
lfingers 7.12502
lthumb -13.7052 32.6525
rfemur -11.9432 2.37553 19.1363
rtibia 33.0168
rfoot -24.376 -19.9886
rtoes 2.31295
lfemur -12.7503 1.9733 -17.6307
ltibia 32.672
lfoot -21.1402 14.8711
ltoes -24.6987
1233
root -0.541336 15.1013 -12.9616 5.22178 14.2161 1.83847
lowerback 1.70815 -1.34877 -6.60122
upperback -4.60475 -2.12219 -0.416109
thorax -5.54069 -0.766233 3.39522
lowerneck -17.3087 -5.29886 -4.61097
upperneck -19.6088 -5.33649 7.80775
head -2.85281 -2.42774 3.04709
rclavicle 2.3382e-014 1.47101e-014
rhumerus -30.1242 -32.0991 -7.72731
rradius 33.5331
rwrist 0.537278
rhand -18.3475 -37.6071
rfingers 7.12502
rthumb 7.93496 -67.4382
lclavicle 2.3382e-014 1.47101e-014
lhumerus -10.6171 19.2862 1.71274
lradius 45.2289
lwrist 27.6131
lhand -40.7825 2.4609
lfingers 7.12502
lthumb -13.722 31.9885
rfemur -12.2551 2.21432 19.2951
rtibia 32.8556
rfoot -24.22 -19.4056
rtoes 2.89597
lfemur -13.1051 2.22936 -17.4308
ltibia 32.8747
lfoot -21.1804 14.7922
ltoes -24.8176
